<?xml version="1.0" encoding="UTF-8"?>
<!-- Generator: Adobe Illustrator 22.0.1, SVG Export Plug-In . SVG Version: 6.00 Build 0)  -->
<svg version="1.1" id="Layer_1" xmlns="http://www.w3.org/2000/svg" xmlns:xlink="http://www.w3.org/1999/xlink" x="0px" y="0px" viewBox="0 0 154 50.9" style="enable-background:new 0 0 154 50.9;" xml:space="preserve">
<style type="text/css">
	.st0{fill:#7160A3;}
</style>
<g>
	<g>
		<path class="st0" d="M46.6,16.1c0-1.7,1.3-3,3-3c1.1,0,1.7,0.4,2.3,1L51.1,15c-0.4-0.4-0.8-0.6-1.5-0.6c-1,0-1.7,0.8-1.7,1.8    s0.7,1.8,1.7,1.8c0.7,0,1.1-0.3,1.5-0.7l0.8,0.9c-0.6,0.6-1.3,1-2.4,1C47.9,19.2,46.6,17.8,46.6,16.1z"/>
		<path class="st0" d="M55.2,14.4h-1.8v-1.2h4.8v1.2h-1.8V19h-1.3L55.2,14.4L55.2,14.4z"/>
		<path class="st0" d="M64,13.2h1.4l-2.2,4.5c-0.5,1-1.1,1.4-1.9,1.4c-0.5,0-0.9-0.1-1.3-0.3l0.5-0.9c0.2,0.1,0.5,0.2,0.7,0.2    s0.5-0.1,0.7-0.5l-2.3-4.4H61l1.6,3.1L64,13.2z"/>
		<path class="st0" d="M66.2,17.9h0.5c0.4-1,0.6-2,0.6-4v-0.7h4.2v4.7h0.7L72,20.3h-1.1v-1.2h-3.6l-0.1,1.2H66v-2.4H66.2z     M68.6,14.4V15c0,1.2-0.2,2.1-0.5,2.9h2.2v-3.5H68.6z"/>
		<path class="st0" d="M74,13.2h4.4v1.1h-3.1v1.2H78v1.1h-2.7v1.2h3.2v1.1H74V13.2z"/>
		<path class="st0" d="M80.5,13.2h1.3v2.3h2.4v-2.3h1.3V19h-1.3v-2.3h-2.4V19h-1.3V13.2z"/>
		<path class="st0" d="M91,16.9c-0.4,0.2-0.9,0.4-1.5,0.4c-1.2,0-2-0.6-2-2v-2.1h1.3V15c0,0.7,0.3,1.1,0.9,1.1c0.5,0,1-0.2,1.3-0.4    v-2.5h1.3V19H91V16.9z"/>
		<path class="st0" d="M94.5,13.2h4.4v1.1h-3.1v1.2h2.7v1.1h-2.7v1.2H99v1.1h-4.4L94.5,13.2L94.5,13.2z"/>
		<path class="st0" d="M100.5,16.1c0-1.7,1.3-3,3-3c1.1,0,1.7,0.4,2.3,1L105,15c-0.4-0.4-0.8-0.6-1.5-0.6c-1,0-1.7,0.8-1.7,1.8    s0.7,1.8,1.7,1.8c0.7,0,1.1-0.3,1.5-0.7l0.8,0.9c-0.6,0.6-1.3,1-2.4,1C101.8,19.2,100.5,17.8,100.5,16.1z"/>
		<path class="st0" d="M107.7,13.2h1.3v2.5l2.4-2.5h1.5l-2.4,2.5l2.5,3.4h-1.5l-1.8-2.5l-0.7,0.7v1.8h-1.3V13.2z"/>
		<path class="st0" d="M116.7,13.2h1.2l2.5,5.9H119l-0.5-1.3H116l-0.5,1.3h-1.3L116.7,13.2z M118,16.6l-0.8-1.9l-0.8,1.9H118z"/>
		<path class="st0" d="M126.7,19.1h-1.3v-1.9h-1l-1.3,1.9h-1.5L123,17c-0.7-0.3-1.3-0.9-1.3-1.8c0-1.2,0.8-1.9,2.2-1.9h2.7    L126.7,19.1L126.7,19.1z M125.4,16.1v-1.7h-1.3c-0.6,0-1,0.3-1,0.8s0.4,0.8,1,0.8h1.3V16.1z"/>
		<path class="st0" d="M46.6,25.7c0-1.7,1.3-3,3.1-3s3.1,1.3,3.1,3s-1.3,3-3.1,3S46.6,27.3,46.6,25.7z M51.5,25.7    c0-1-0.7-1.8-1.8-1.8c-1,0-1.7,0.8-1.7,1.8s0.7,1.8,1.8,1.8C50.8,27.5,51.5,26.7,51.5,25.7z"/>
		<path class="st0" d="M59.5,22.8v5.8h-1.3v-4.7h-1.7v0.4c0,3.4-0.6,4.3-1.9,4.3c-0.2,0-0.5,0-0.7-0.1l0.1-1.1c0.1,0,0.1,0,0.2,0    c0.7,0,1.1-0.4,1.1-3.6v-1.2h4.2L59.5,22.8L59.5,22.8z"/>
		<path class="st0" d="M66.7,28.6h-1.3v-3.8l-2.5,3.8h-1.2v-5.8H63v3.8l2.6-3.8h1.2L66.7,28.6C66.8,28.6,66.7,28.6,66.7,28.6z"/>
		<path class="st0" d="M69,22.8h1.4l1.5,2.5l1.5-2.5h1.4v5.8h-1.3v-3.8l-1.6,2.5l0,0l-1.6-2.5v3.8H69V22.8z"/>
		<path class="st0" d="M77,22.8h4.9v5.8h-1.3v-4.7h-2.3v4.7H77V22.8z"/>
		<path class="st0" d="M89.2,28.6h-1.3v-3.8l-2.5,3.8h-1.2v-5.8h1.3v3.8l2.6-3.8h1.2L89.2,28.6C89.3,28.6,89.2,28.6,89.2,28.6z"/>
		<path class="st0" d="M93.4,22.7h1.2l2.5,5.9h-1.3l-0.5-1.3h-2.5l-0.5,1.3H91L93.4,22.7z M94.7,26.1l-0.8-1.9l-0.8,1.9H94.7z"/>
		<path class="st0" d="M98.2,27.4h0.5c0.4-1,0.6-2,0.6-4v-0.7h4.2v4.7h0.7l-0.2,2.4h-1.1v-1.2h-3.6l-0.1,1.2H98v-2.4    C98,27.4,98.2,27.4,98.2,27.4z M100.6,23.9v0.6c0,1.2-0.2,2.1-0.5,2.9h2.2v-3.5H100.6z"/>
		<path class="st0" d="M108.1,22.7h1.2l2.5,5.9h-1.3l-0.5-1.3h-2.5l-0.5,1.3h-1.3L108.1,22.7z M109.4,26.1l-0.8-1.9l-0.8,1.9H109.4z    "/>
		<path class="st0" d="M51.5,38.1h-1.3v-1.9h-1l-1.3,1.9h-1.5l1.4-2.1c-0.7-0.3-1.3-0.9-1.3-1.8c0-1.2,0.8-1.9,2.2-1.9h2.7    L51.5,38.1L51.5,38.1z M50.2,35.1v-1.7h-1.3c-0.6,0-1,0.3-1,0.8s0.4,0.8,1,0.8h1.3V35.1z"/>
		<path class="st0" d="M56.8,34.9h6.6v1.2h-6.6V34.9z"/>
		<path class="st0" d="M68.7,32.3h4.9v5.8h-1.3v-4.7H70v4.7h-1.3V32.3z"/>
		<path class="st0" d="M75.8,32.3h2.4c1.4,0,2.2,0.8,2.2,2c0,1.4-1,2-2.4,2h-1V38h-1.3L75.8,32.3L75.8,32.3z M78.1,35.2    c0.6,0,1-0.4,1-0.9c0-0.6-0.4-0.9-1-0.9h-1v1.8C77.1,35.2,78.1,35.2,78.1,35.2z"/>
		<path class="st0" d="M81.9,35.2c0-1.7,1.3-3,3.1-3s3.1,1.3,3.1,3s-1.3,3-3.1,3S81.9,36.9,81.9,35.2z M86.8,35.2    c0-1-0.7-1.8-1.8-1.8c-1,0-1.7,0.8-1.7,1.8S84,37,85.1,37C86.1,37,86.8,36.2,86.8,35.2z"/>
		<path class="st0" d="M92.7,38.3v-0.6c-1.8,0-2.9-1.1-2.9-2.6s1.1-2.5,2.9-2.5V32H94v0.5c1.8,0,2.9,1.1,2.9,2.5s-1.1,2.6-2.9,2.6    v0.6h-1.3V38.3z M92.7,33.7c-0.9,0-1.6,0.6-1.6,1.4c0,0.9,0.6,1.4,1.6,1.4V33.7z M93.9,36.6c0.9,0,1.6-0.5,1.6-1.4    s-0.6-1.4-1.6-1.4V36.6z"/>
		<path class="st0" d="M98.7,32.3h4.4v1.1H100v1.2h2.7v1.1H100V37h3.2v1.1h-4.4L98.7,32.3L98.7,32.3z"/>
		<path class="st0" d="M104.7,35.2c0-1.7,1.3-3,3-3c1.1,0,1.7,0.4,2.3,1l-0.8,0.9c-0.4-0.4-0.8-0.6-1.5-0.6c-1,0-1.7,0.8-1.7,1.8    s0.7,1.8,1.7,1.8c0.7,0,1.1-0.3,1.5-0.7l0.8,0.9c-0.6,0.6-1.3,1-2.4,1C106,38.2,104.7,36.9,104.7,35.2z"/>
		<path class="st0" d="M111.5,35.2c0-1.7,1.3-3,3-3c1.1,0,1.7,0.4,2.3,1l-0.8,0.9c-0.4-0.4-0.8-0.6-1.5-0.6c-1,0-1.7,0.8-1.7,1.8    s0.7,1.8,1.7,1.8c0.7,0,1.1-0.3,1.5-0.7l0.8,0.9c-0.6,0.6-1.3,1-2.4,1C112.8,38.2,111.5,36.9,111.5,35.2z"/>
		<path class="st0" d="M123.8,38.1h-1.3v-3.8l-2.5,3.8h-1.2v-5.8h1.3v3.8l2.6-3.8h1.2L123.8,38.1L123.8,38.1z"/>
		<path class="st0" d="M125.8,35.2c0-1.7,1.3-3,3.1-3s3.1,1.3,3.1,3s-1.3,3-3.1,3C127.1,38.2,125.8,36.9,125.8,35.2z M130.6,35.2    c0-1-0.7-1.8-1.8-1.8c-1,0-1.7,0.8-1.7,1.8s0.7,1.8,1.8,1.8C129.9,37,130.6,36.2,130.6,35.2z"/>
		<path class="st0" d="M133.9,32.3h1.3v2.3h2.4v-2.3h1.3v5.8h-1.3v-2.3h-2.4v2.3h-1.3V32.3z"/>
		<path class="st0" d="M143.1,32.2h1.2l2.5,5.9h-1.3l-0.5-1.3h-2.5l-0.5,1.3h-1.3L143.1,32.2z M144.5,35.7l-0.8-1.9l-0.8,1.9H144.5z    "/>
		<path class="st0" d="M153.5,32.3v5.8h-1.3v-4.7h-1.7v0.4c0,3.4-0.6,4.3-1.9,4.3c-0.2,0-0.5,0-0.7-0.1l0.1-1c0.1,0,0.1,0,0.2,0    c0.7,0,1.1-0.4,1.1-3.6v-1.2L153.5,32.3L153.5,32.3z"/>
	</g>
	<g>
		<polygon class="st0" points="76.3,9.5 46.2,9.5 46.2,3.4 79.6,3.4   "/>
		<polygon class="st0" points="76.3,48.2 46.2,48.2 46.2,42.1 79.6,42.1   "/>
		<g>
			<g>
				<path class="st0" d="M3.4,43h4.4v5.2H6.6V44H4.5v4.2H3.3L3.4,43L3.4,43z"/>
				<path class="st0" d="M10.3,43h2.1c1.2,0,2,0.7,2,1.8c0,1.2-0.9,1.8-2.1,1.8h-0.9v1.6h-1.2L10.3,43L10.3,43z M12.3,45.6      c0.6,0,0.9-0.3,0.9-0.8S12.8,44,12.3,44h-0.9v1.6H12.3z"/>
				<path class="st0" d="M15.9,45.6c0-1.5,1.2-2.7,2.8-2.7c1.6,0,2.8,1.2,2.8,2.7s-1.2,2.7-2.8,2.7C17,48.3,15.9,47.1,15.9,45.6z       M20.2,45.6c0-0.9-0.7-1.6-1.6-1.6S17,44.7,17,45.6c0,0.9,0.7,1.6,1.6,1.6C19.6,47.2,20.2,46.5,20.2,45.6z"/>
				<path class="st0" d="M25.5,48.4v-0.6c-1.6,0-2.6-1-2.6-2.3s1-2.3,2.6-2.3v-0.5h1.2v0.5c1.6,0,2.6,1,2.6,2.3s-1,2.3-2.6,2.3v0.6      H25.5z M25.5,44.3c-0.8,0-1.4,0.5-1.4,1.3s0.6,1.3,1.4,1.3V44.3z M26.6,46.8c0.8,0,1.4-0.5,1.4-1.3s-0.6-1.3-1.4-1.3V46.8z"/>
				<path class="st0" d="M35.6,48.2h-1.1v-3.4l-2.3,3.4h-1.1V43h1.1v3.4l2.3-3.4h1.1V48.2z"/>
			</g>
			<path class="st0" d="M30.7,9.5h1.6l3.2-6.1h-4.8H20.1h-3.6C9.2,3.4,4.8,7.2,4.8,13.6c0,5.1,2.7,8.2,6.6,9.7l-4.3,8.2H3.4v6.1h0.5     h8h3.8l3.2-6.1H15l3.6-7.1H24v7.1h-3.8v6.1H24h6.8h1.6l3.2-6.1h-4.8L30.7,9.5L30.7,9.5z M17,18.4c-3.3,0-5.2-1.8-5.2-4.4     c0-3,2-4.5,5.4-4.5H24v8.9H17z"/>
		</g>
	</g>
</g>
</svg>